<svg xmlns="http://www.w3.org/2000/svg" viewBox="0 0 1200 800" role="img" aria-labelledby="title desc">
  <title id="title">Elephant in the savannah</title>
  <desc id="desc">A stylized elephant walking across a golden savannah.</desc>
  <rect width="1200" height="800" fill="#e7b66d"/>
  <circle cx="920" cy="180" r="125" fill="#f7d795" opacity=".65"/>
  <path d="M0 470 220 330 390 450 580 300 760 450 940 320 1200 480V800H0Z" fill="#8b7650"/>
  <path d="M0 590c240-80 370-15 565-75 200-62 380 32 635-42v327H0Z" fill="#334e3b"/>
  <g fill="#18261e">
    <path d="M470 525c0-125 82-205 215-205 117 0 190 62 202 166l82 32c31 12 36 43 9 62l-69 48-20 121h-48l-19-111H635l-18 111h-50l-12-119-70-16c-13-3-24-17-24-31v-58c0-9 4-17 9-24Z"/>
    <path d="M846 472c62-12 107 6 139 44l58 28c14 7 15 27 1 35l-72 42-28-28 41-31-64-19-83 20Z"/>
    <ellipse cx="570" cy="405" rx="65" ry="83"/>
    <path d="M525 423c-79-28-103-101-55-143 20-18 51-18 69 1l24 26-27 31-30-15c-16-8-30 7-20 21 22 32 57 47 87 52Z"/>
    <circle cx="584" cy="382" r="8" fill="#f7d795"/>
  </g>
</svg>
